HIERARCHY
ROOT reference
{
  OFFSET 0 0 0
  CHANNELS 6 Xposition Yposition Zposition Zrotation Xrotation Yrotation
  JOINT Hips
  {
    OFFSET -17.4895 77.7251 -228.032
    CHANNELS 6 Xposition Yposition Zposition Zrotation Xrotation Yrotation
    JOINT Spine
    {
      OFFSET 0 8.22665 0
      CHANNELS 6 Xposition Yposition Zposition Zrotation Xrotation Yrotation
      JOINT Spine1
      {
        OFFSET 0 24.451 0
        CHANNELS 6 Xposition Yposition Zposition Zrotation Xrotation Yrotation
        JOINT Neck
        {
          OFFSET 0 24.3506 2.21369
          CHANNELS 6 Xposition Yposition Zposition Zrotation Xrotation Yrotation
          JOINT Head
          {
            OFFSET 0 14.0455 -2.0065
            CHANNELS 6 Xposition Yposition Zposition Zrotation Xrotation Yrotation
            End Site
            {
              OFFSET 0 25.0812 0
            }
          }
        }
        JOINT LeftShoulder
        {
          OFFSET 4.0594 22.2558 -0.272799
          CHANNELS 6 Xposition Yposition Zposition Zrotation Xrotation Yrotation
          JOINT LeftArm
          {
            OFFSET 12.0298 0 0
            CHANNELS 6 Xposition Yposition Zposition Zrotation Xrotation Yrotation
            JOINT LeftForeArm
            {
              OFFSET 31.2689 0 0
              CHANNELS 6 Xposition Yposition Zposition Zrotation Xrotation Yrotation
              JOINT LeftHand
              {
                OFFSET 28.0275 0 0
                CHANNELS 6 Xposition Yposition Zposition Zrotation Xrotation Yrotation
                End Site
                {
                  OFFSET 15.0487 0 0
                }
              }
            }
          }
        }
        JOINT RightShoulder
        {
          OFFSET -3.96464 22.2558 -0.272799
          CHANNELS 6 Xposition Yposition Zposition Zrotation Xrotation Yrotation
          JOINT RightArm
          {
            OFFSET -12.0298 0 0
            CHANNELS 6 Xposition Yposition Zposition Zrotation Xrotation Yrotation
            JOINT RightForeArm
            {
              OFFSET -31.2689 0 0
              CHANNELS 6 Xposition Yposition Zposition Zrotation Xrotation Yrotation
              JOINT RightHand
              {
                OFFSET -28.0275 0 0
                CHANNELS 6 Xposition Yposition Zposition Zrotation Xrotation Yrotation
                End Site
                {
                  OFFSET -15.0487 0 0
                }
              }
            }
          }
        }
      }
    }
    JOINT LeftUpLeg
    {
      OFFSET 10.0325 0 0
      CHANNELS 6 Xposition Yposition Zposition Zrotation Xrotation Yrotation
      JOINT LeftLeg
      {
        OFFSET 0 -38.4033 0
        CHANNELS 6 Xposition Yposition Zposition Zrotation Xrotation Yrotation
        JOINT LeftFoot
        {
          OFFSET 0 -44.1642 0
          CHANNELS 6 Xposition Yposition Zposition Zrotation Xrotation Yrotation
          JOINT LeftToeBase
          {
            OFFSET 0 -6.52112 15.0487
            CHANNELS 6 Xposition Yposition Zposition Zrotation Xrotation Yrotation
            End Site
            {
              OFFSET 0 0 4.013
            }
          }
        }
      }
    }
    JOINT RightUpLeg
    {
      OFFSET -10.0325 0 0
      CHANNELS 6 Xposition Yposition Zposition Zrotation Xrotation Yrotation
      JOINT RightLeg
      {
        OFFSET 0 -38.4033 0
        CHANNELS 6 Xposition Yposition Zposition Zrotation Xrotation Yrotation
        JOINT RightFoot
        {
          OFFSET 0 -44.1642 0
          CHANNELS 6 Xposition Yposition Zposition Zrotation Xrotation Yrotation
          JOINT RightToeBase
          {
            OFFSET 0 -6.52112 15.0487
            CHANNELS 6 Xposition Yposition Zposition Zrotation Xrotation Yrotation
            End Site
            {
              OFFSET 0 0 4.013
            }
          }
        }
      }
    }
  }
}
MOTION
Frames:	8
Frame Time:	0.004
0 0 0 0 0 -0 -25.5071 85.2095 -209.512 -0.157425 -2.56344 3.58682 0 8.22665 2.84217e-014 0.683064 -3.97527 0.814467 -3.55271e-015 24.451 0 -0.825491 0.740324 0.796361 -3.55271e-015 24.3506 2.21369 8.39637 19.8217 13.3828 -1.42109e-014 14.0455 -2.0065 -18.6736 -3.01637 11.1099 4.0594 22.2558 -0.272799 21.368 1.33627 -3.67649 12.0298 0 0 -20.6252 6.8675 0.0682224 31.2689 0 0 2.92808 -8.67755 7.93901 28.0275 2.84217e-014 2.84217e-014 25.483 -6.81209 9.20447 -3.96464 22.2558 -0.272799 -17.7966 -2.37823 1.09517 -12.0298 0 2.84217e-014 10.4683 2.99014 7.85905 -31.2689 2.84217e-014 0 0.671321 -3.08241 -5.93667 -28.0275 5.68434e-014 0 -13.3175 -3.06778 0.17303 10.0325 1.42109e-014 2.84217e-014 -0.201176 8.45792 0.270677 -1.77636e-015 -38.4033 0 -3.15512 2.58802 -5.32098 3.55271e-015 -44.1642 2.84217e-014 4.4867 -10.5006 17.8022 7.10543e-015 -6.52112 15.0487 0 0 -6.36111e-015 -10.0325 0 0 -1.71032 -1.10751 1.06826 1.06581e-014 -38.4033 0 2.26218 19.0829 -0.010586 -3.55271e-015 -44.1642 0 0.788156 -17.6193 -15.6891 0 -6.52112 15.0487 -4.96962e-017 7.95139e-016 -4.77083e-015 
0 0 0 0 0 -0 -25.5071 85.2095 -209.514 -0.157425 -2.56344 3.58682 0 8.22665 0 0.683064 -3.97527 0.814467 -3.55271e-015 24.451 0 -0.823876 0.740527 0.796361 0 24.3506 2.21369 8.37996 19.8232 13.363 0 14.0455 -2.0065 -18.6544 -3.03993 11.0893 4.0594 22.2558 -0.272799 21.3587 1.34161 -3.67649 12.0298 -2.84217e-014 5.68434e-014 -20.615 6.85666 0.0682208 31.2689 -2.84217e-014 -2.84217e-014 2.91034 -8.66236 7.93868 28.0275 -2.84217e-014 -2.84217e-014 25.5003 -6.8128 9.16683 -3.96464 22.2558 -0.272799 -17.7984 -2.37823 1.09517 -12.0298 2.84217e-014 -2.84217e-014 10.4825 2.99014 7.85905 -31.2689 -2.84217e-014 0 0.65071 -3.09166 -5.93672 -28.0275 2.84217e-014 0 -13.2975 -3.0791 0.18183 10.0325 1.42109e-014 0 -0.201711 8.46738 0.274008 0 -38.4033 0 -3.15289 2.57305 -5.40094 -3.55271e-015 -44.1642 -2.84217e-014 4.53449 -10.4993 17.8693 7.10543e-015 -6.52112 15.0487 -9.93923e-017 -3.97569e-016 -3.18055e-015 -10.0325 0 -2.84217e-014 -1.70949 -1.10749 1.11161 0 -38.4033 2.84217e-014 2.28838 19.0829 -0.010586 3.55271e-015 -44.1642 -2.84217e-014 0.787793 -17.6206 -15.7266 -2.84217e-014 -6.52112 15.0487 2.98177e-016 0 3.18055e-015 
0 0 0 0 0 -0 -25.5071 85.2095 -209.521 -0.157442 -2.56344 3.58644 -1.77636e-015 8.22665 0 0.683064 -3.97527 0.814467 0 24.451 0 -0.845423 0.729637 0.796359 3.55271e-015 24.3506 2.21369 8.39977 19.8125 13.3686 0 14.0455 -2.0065 -18.6583 -3.01796 11.0979 4.0594 22.2558 -0.272799 21.3832 1.32614 -3.67647 12.0298 -5.68434e-014 2.84217e-014 -20.6304 6.86712 0.0682223 31.2689 2.84217e-014 0 2.91281 -8.66653 7.93877 28.0275 2.84217e-014 0 25.4703 -6.81262 9.17664 -3.96464 22.2558 -0.272799 -17.781 -2.37823 1.09517 -12.0298 -2.84217e-014 0 10.4825 2.99014 7.85905 -31.2689 0 -2.84217e-014 0.647736 -3.08956 -5.93671 -28.0275 -2.84217e-014 0 -13.2738 -3.07737 0.183831 10.0325 1.42109e-014 0 -0.202932 8.44341 0.283095 -1.77636e-015 -38.4033 0 -3.15117 2.6008 -5.38118 -3.55271e-015 -44.1642 -2.84217e-014 4.53512 -10.5069 17.8466 0 -6.52112 15.0487 -9.93923e-017 3.97569e-016 -3.18055e-015 -10.0325 0 0 -1.70948 -1.12041 1.09903 0 -38.4033 -2.84217e-014 2.27446 19.0887 -0.008751 0 -44.1642 0 0.768025 -17.6341 -15.7122 0 -6.52112 15.0487 -0 -7.95139e-016 -0 
0 0 0 0 0 -0 -25.5071 85.2087 -209.523 -0.157949 -2.56348 3.5751 3.55271e-015 8.22665 0 0.683064 -3.97527 0.814467 3.55271e-015 24.451 -2.84217e-014 -0.83613 0.736408 0.79636 3.55271e-015 24.3506 2.21369 8.39818 19.8211 13.3679 1.42109e-014 14.0455 -2.0065 -18.6858 -3.03787 11.0921 4.0594 22.2558 -0.272799 21.3631 1.32445 -3.67991 12.0298 -2.84217e-014 2.84217e-014 -20.6136 6.85777 0.068221 31.2689 -5.68434e-014 2.84217e-014 2.90872 -8.66831 7.93881 28.0275 0 0 25.4454 -6.81278 9.16795 -3.96464 22.2558 -0.272799 -17.7917 -2.37823 1.09517 -12.0298 2.84217e-014 2.84217e-014 10.4954 2.99014 7.85905 -31.2689 2.84217e-014 0 0.637118 -3.09285 -5.93672 -28.0275 -2.84217e-014 0 -13.2424 -3.08471 0.214557 10.0325 -1.42109e-014 -2.84217e-014 -0.204175 8.4545 0.290687 0 -38.4033 0 -3.15133 2.58848 -5.40321 0 -44.1642 2.84217e-014 4.47563 -10.5089 17.8635 0 -6.52112 15.0487 -2.20695e-032 3.97569e-016 3.18055e-015 -10.0325 -1.42109e-014 -2.84217e-014 -1.70951 -1.12199 1.09611 -3.55271e-015 -38.4033 2.84217e-014 2.26707 19.0993 0.008824 7.10543e-015 -44.1642 0 0.775932 -17.6189 -15.7144 0 -6.52112 15.0487 -4.96962e-017 0 -0 
0 0 0 0 0 -0 -25.5071 85.2082 -209.527 -0.155753 -2.56348 3.57395 -3.55271e-015 8.22665 2.84217e-014 0.683064 -3.97527 0.814467 3.55271e-015 24.451 2.84217e-014 -0.849948 0.735891 0.79636 0 24.3506 2.21369 8.39885 19.8232 13.3628 1.42109e-014 14.0455 -2.0065 -18.6834 -3.04396 11.0842 4.0594 22.2558 -0.272799 21.3716 1.33464 -3.66649 12.0298 0 0 -20.6167 6.85346 0.053484 31.2689 2.84217e-014 -2.84217e-014 2.91405 -8.67615 7.93809 28.0275 0 -2.84217e-014 25.4587 -6.81564 9.18686 -3.96464 22.2558 -0.272799 -17.7919 -2.37823 1.09517 -12.0298 -2.84217e-014 0 10.5062 2.99014 7.85905 -31.2689 0 -2.84217e-014 0.641384 -3.07896 -5.93665 -28.0275 0 2.84217e-014 -13.2354 -3.07075 0.215909 10.0325 0 2.84217e-014 -0.213657 8.43358 0.286683 -1.77636e-015 -38.4033 2.84217e-014 -3.15326 2.59996 -5.35853 7.10543e-015 -44.1642 2.84217e-014 4.52428 -10.5036 17.843 0 -6.52112 15.0487 -9.93923e-017 0 3.18055e-015 -10.0325 -1.42109e-014 0 -1.71665 -1.13042 1.08635 3.55271e-015 -38.4033 2.84217e-014 2.27344 19.0841 0.005319 0 -44.1642 -2.84217e-014 0.799241 -17.6143 -15.708 0 -6.52112 15.0487 -3.47873e-016 -3.97569e-016 -3.18055e-015 
0 0 0 0 0 -0 -25.5071 85.2077 -209.531 -0.154822 -2.5635 3.56513 -1.77636e-015 8.22665 0 0.683064 -3.97527 0.814467 0 24.451 2.84217e-014 -0.853736 0.738643 0.79636 -3.55271e-015 24.3506 2.21369 8.36509 19.8096 13.3512 0 14.0455 -2.0065 -18.6227 -3.03471 11.0814 4.0594 22.2558 -0.272799 21.3264 1.49973 -3.40707 12.0298 2.84217e-014 0 -20.4701 6.70492 -0.346652 31.2689 0 0 2.8539 -8.63441 8.02822 28.0275 0 0 25.4537 -6.77898 9.15695 -3.96464 22.2558 -0.272799 -17.7956 -2.37823 1.09517 -12.0298 0 0 10.5171 2.9807 7.85898 -31.2689 -2.84217e-014 0 0.616798 -3.11309 -5.9335 -28.0275 0 2.84217e-014 -13.188 -3.10362 0.194279 10.0325 1.42109e-014 0 -0.21229 8.43784 0.300267 -3.55271e-015 -38.4033 2.84217e-014 -3.15274 2.61468 -5.3629 0 -44.1642 2.84217e-014 4.52152 -10.4935 17.8548 0 -6.52112 15.0487 -9.93923e-017 0 -0 -10.0325 0 -2.84217e-014 -1.71842 -1.13041 1.11874 -1.06581e-014 -38.4033 0 2.27721 19.0958 0.00839581 0 -44.1642 -2.84217e-014 0.802577 -17.6283 -15.7327 0 -6.52112 15.0487 -3.97569e-016 7.95139e-016 1.59028e-015 
0 0 0 0 0 -0 -25.5058 85.2072 -209.535 -0.153803 -2.56353 3.55537 -3.55271e-015 8.22665 0 0.683064 -3.97527 0.814467 0 24.451 2.84217e-014 -0.848137 0.742053 0.796361 0 24.3506 2.21369 8.39794 19.8369 13.3455 0 14.0455 -2.0065 -18.7049 -3.06393 11.0603 4.0594 22.2558 -0.272799 21.3714 1.32218 -3.67259 12.0298 0 0 -20.6228 6.84904 0.063281 31.2689 0 0 2.91289 -8.67111 7.93265 28.0275 0 0 25.4337 -6.81317 9.18368 -3.96464 22.2558 -0.272799 -17.7955 -2.37823 1.09517 -12.0298 0 0 10.5167 2.95993 7.85883 -31.2689 0 2.84217e-014 0.630158 -3.08343 -5.93221 -28.0275 0 -2.84217e-014 -13.1883 -3.07814 0.236603 10.0325 1.42109e-014 2.84217e-014 -0.214639 8.44378 0.277693 -1.77636e-015 -38.4033 0 -3.15509 2.6023 -5.36067 0 -44.1642 0 4.51687 -10.4977 17.8907 0 -6.52112 15.0487 -2.98177e-016 -7.95139e-016 -0 -10.0325 1.42109e-014 2.84217e-014 -1.72418 -1.13143 1.09077 -3.55271e-015 -38.4033 0 2.27621 19.096 0.0126955 0 -44.1642 2.84217e-014 0.765695 -17.6103 -15.6941 0 -6.52112 15.0487 3.47873e-016 3.97569e-016 3.18055e-015 
0 0 0 0 0 -0 -25.5044 85.2068 -209.541 -0.152449 -2.56354 3.55311 0 8.22665 0 0.683157 -3.97526 0.81581 0 24.451 0 -0.86372 0.745126 0.796106 0 24.3506 2.21369 8.38139 19.8114 13.3348 -1.42109e-014 14.0455 -2.0065 -18.6543 -3.05117 11.057 4.0594 22.2558 -0.272799 21.3807 1.32809 -3.66364 12.0298 0 2.84217e-014 -20.6222 6.85409 0.053575 31.2689 2.84217e-014 2.84217e-014 2.91106 -8.67615 7.92906 28.0275 0 0 25.4554 -6.81559 9.1863 -3.96464 22.2558 -0.272799 -17.783 -2.37823 1.09517 -12.0298 0 0 10.5136 2.961 7.85884 -31.2689 0 0 0.633385 -3.0944 -5.93108 -28.0275 -2.84217e-014 0 -13.2025 -3.09013 0.246453 10.0325 0 0 -0.222113 8.43256 0.284378 -1.77636e-015 -38.4033 0 -3.15623 2.60695 -5.35014 0 -44.1642 2.84217e-014 4.51684 -10.5164 17.8565 0 -6.52112 15.0487 -1.98785e-016 0 -6.36111e-015 -10.0325 0 2.84217e-014 -1.72897 -1.14056 1.09949 -3.55271e-015 -38.4033 -2.84217e-014 2.27397 19.0949 0.0165826 -3.55271e-015 -44.1642 0 0.79497 -17.6041 -15.6882 1.42109e-014 -6.52112 15.0487 -1.98785e-016 -7.95139e-016 -1.59028e-015 
